# xmcd CD database file
#
# Track frame offsets:
#	150
#	20320
#	40613
#
# Disc length: 809 seconds
#
# Revision: 4
# Processed by: cddbd v1.5.2PL0 Copyright (c) Steve Scherf et al.
# Submitted via: CDex 1.70beta2
#
DISCID=15032703
DTITLE=Mai Hosho - Carnival
DYEAR=1997
DGENRE=JPop
TTITLE0=Carnival
TTITLE1=Hello or Heaven
TTITLE2=Carnival(Instrumetal)
EXTD=YEAR: 1997
EXTT0=
EXTT1=
EXTT2=
PLAYORDER=
